<svg id="FAQ" xmlns="http://www.w3.org/2000/svg" width="256" height="256" viewBox="0 0 512 512">
  <defs>
    <style>
      .cls-1 {
        fill: #fff;
      }

      .cls-2 {
        fill: #232220;
        fill-rule: evenodd;
      }
    </style>
  </defs>
  <circle id="Main" class="cls-1" cx="255.5" cy="255.5" r="228.5"/>
  <path id="Front" class="cls-2" d="M137.38,138h196.4a17.392,17.392,0,0,1,17.381,17.4V278.091a17.392,17.392,0,0,1-17.381,17.4H241.04c-23.119,23.148-72.375,65.259-72.375,65.259s-0.135-17.567-.135-65.259H137.38a17.392,17.392,0,0,1-17.38-17.4V155.4A17.391,17.391,0,0,1,137.38,138Z"/>
  <path id="Behind" class="cls-2" d="M366.8,275.481c0,17.068-4.408,33.935-37.368,33.935H252.089L218.974,340.74H270.96C294.079,363.889,343.335,406,343.335,406s0.135-17.567.135-65.26h31.15a17.391,17.391,0,0,0,17.38-17.4V200.649a17.391,17.391,0,0,0-17.38-17.4h-9.106"/>
</svg>